<?xml version="1.0" encoding="utf-8"?>
<svg width="289px" height="293px" viewBox="0 0 289 293" version="1.1" xmlns:xlink="http://www.w3.org/1999/xlink" xmlns="http://www.w3.org/2000/svg">
  <defs>
    <path d="M0 0L240 0L240 240L0 240L0 0Z" id="path_1" />
    <rect width="289" height="293" id="artboard_1" />
    <clipPath id="clip_1">
      <use xlink:href="#artboard_1" clip-rule="evenodd" />
    </clipPath>
    <clipPath id="mask_1">
      <use xlink:href="#path_1" />
    </clipPath>
  </defs>
  <g id="Artboard" clip-path="url(#clip_1)">
    <use xlink:href="#artboard_1" stroke="none" fill="#FFFFFF" fill-opacity="0" />
    <g id="Info-icon-3" transform="translate(24 26.399994)">
      <path d="M0 0L240 0L240 240L0 240L0 0Z" id="Background" fill="none" fill-rule="evenodd" stroke="none" />
      <g clip-path="url(#mask_1)">
        <path d="M122.4 151.2L28.8 151.2C12.96 151.2 0 138.24 0 122.4L0 28.8C0 12.96 12.96 0 28.8 0L122.4 0C138.24 0 151.2 12.96 151.2 28.8L151.2 122.4C151.2 138.24 138.24 151.2 122.4 151.2L122.4 151.2Z" transform="translate(43.9368 45.50641)" id="Shape" fill="#78A1D1" fill-rule="evenodd" stroke="none" />
        <path d="M124.8 156L31.2 156C13.9968 156 0 142.003 0 124.8L0 31.2C0 13.9968 13.9968 0 31.2 0L124.8 0C142.003 0 156 13.9968 156 31.2L156 124.8C156 142.003 142.006 156 124.8 156L124.8 156ZM31.2 4.79999C16.644 4.79999 4.79999 16.644 4.79999 31.2L4.79999 124.8C4.79999 139.356 16.644 151.2 31.2 151.2L124.8 151.2C139.356 151.2 151.2 139.356 151.2 124.8L151.2 31.2C151.2 16.644 139.356 4.79999 124.8 4.79999L31.2 4.79999L31.2 4.79999Z" transform="translate(41.536804 43.106354)" id="Shape" fill="#1F212B" fill-rule="evenodd" stroke="none" />
        <path d="M129.6 60L129.6 104.791C129.6 118.435 118.435 129.6 104.791 129.6L24.8088 129.6C11.1648 129.6 0 118.435 0 104.791L0 24.8088C0 11.1648 11.1648 0 24.8088 0L105.6 0" transform="translate(54.736786 56.306366)" id="Shape" fill="#82A8CC" fill-rule="evenodd" stroke="none" />
        <path d="M105.991 132L26.0088 132C11.6664 132 0 120.334 0 105.991L0 26.0088C0 11.6664 11.6664 0 26.0088 0L106.8 0C107.462 0 108 0.537602 108 1.2C108 1.8624 107.462 2.4 106.8 2.4L26.0088 2.4C12.9912 2.4 2.4 12.9912 2.4 26.0088L2.4 105.991C2.4 119.009 12.9912 129.6 26.0088 129.6L105.991 129.6C119.009 129.6 129.6 119.009 129.6 105.991L129.6 61.2C129.6 60.5376 130.138 60 130.8 60C131.462 60 132 60.5376 132 61.2L132 105.991C132 120.331 120.334 132 105.991 132L105.991 132ZM130.8 55.2C130.138 55.2 129.6 54.6624 129.6 54L129.6 44.4C129.6 43.7376 130.138 43.2 130.8 43.2C131.462 43.2 132 43.7376 132 44.4L132 54C132 54.6624 131.462 55.2 130.8 55.2L130.8 55.2ZM130.8 40.8C130.138 40.8 129.6 40.2624 129.6 39.6L129.6 34.8C129.6 34.1376 130.138 33.6 130.8 33.6C131.462 33.6 132 34.1376 132 34.8L132 39.6C132 40.2624 131.462 40.8 130.8 40.8L130.8 40.8Z" transform="translate(53.536774 55.106384)" id="Shape" fill="#92EED4" fill-rule="evenodd" stroke="none" />
        <path d="M26.3016 71.508C26.1432 74.7576 29.5632 76.3848 36.5616 76.3848L36.5616 82.5576L0 82.5576L0 76.3824C6.7608 76.3824 10.1448 74.7576 10.1448 71.5056L10.1448 38.568C10.1448 35.2464 6.7632 33.5856 0 33.5856L0 27.408L26.3016 27.408L26.3016 71.508L26.3016 71.508ZM27.7152 9.20641C27.7152 11.736 26.7528 13.92 24.8256 15.7632C22.8984 17.604 20.52 18.5256 17.6904 18.5256C16.2744 18.5256 14.9568 18.2736 13.74 17.7672C12.5184 17.2608 11.46 16.5936 10.5552 15.7632C9.65041 14.9328 8.92081 13.9584 8.37361 12.8376C7.82401 11.7192 7.548 10.5072 7.548 9.2088C7.548 6.6096 8.5512 4.4256 10.5552 2.6544C12.5592 0.885599 14.9376 0 17.6904 0C20.4408 0 22.8 0.904798 24.7656 2.7096C26.7312 4.512 27.7152 6.6792 27.7152 9.20641L27.7152 9.20641Z" transform="translate(101.71924 78.72238)" id="Shape" fill="#FDFCEE" fill-rule="evenodd" stroke="none" />
        <path d="M37.7616 84.96L1.2 84.96C0.537598 84.96 0 84.4224 0 83.76L0 77.5848C0 76.9224 0.537598 76.3848 1.2 76.3848C7.1352 76.3848 10.1448 75.1488 10.1448 72.708L10.1448 39.7704C10.1448 37.26 7.1352 35.9856 1.2 35.9856C0.537598 35.9856 0 35.448 0 34.7856L0 28.6104C0 27.948 0.537598 27.4104 1.2 27.4104L27.5016 27.4104C28.164 27.4104 28.7016 27.948 28.7016 28.6104L28.7016 72.7104C28.7016 72.7296 28.7016 72.7488 28.7016 72.768C28.6656 73.4736 28.8576 74.0184 29.3016 74.4864C30.1272 75.3528 32.2656 76.3872 37.7616 76.3872C38.424 76.3872 38.9616 76.9248 38.9616 77.5872L38.9616 83.76C38.9616 84.4248 38.4264 84.96 37.7616 84.96L37.7616 84.96ZM2.39999 82.56L36.5616 82.56L36.5616 78.7679C32.0712 78.6407 29.1216 77.7767 27.5616 76.1399C26.664 75.1992 26.2416 74.0351 26.3016 72.6815L26.3016 29.8104L2.39999 29.8104L2.39999 33.6048C9.132 33.8184 12.5448 35.892 12.5448 39.7704L12.5448 72.7104C12.5448 76.5216 9.13439 78.5568 2.39999 78.768L2.39999 82.56L2.39999 82.56ZM27.5016 72.7104L29.9016 72.7104L27.5016 72.7104L27.5016 72.7104ZM18.8928 20.928C17.3256 20.928 15.8424 20.6424 14.4816 20.0784C13.14 19.524 11.9496 18.7752 10.944 17.8488C9.92882 16.9152 9.10563 15.8112 8.49602 14.5656C7.86722 13.2864 7.54802 11.8872 7.54802 10.4088C7.54802 7.46399 8.69762 4.956 10.9608 2.9568C13.1832 0.995993 15.852 0 18.8928 0C21.9384 0 24.5928 1.0176 26.7792 3.024C28.9944 5.06159 30.1176 7.54559 30.1176 10.4088C30.1176 13.2648 29.0208 15.7608 26.8584 17.832C24.7056 19.8864 22.0272 20.928 18.8928 20.928L18.8928 20.928ZM18.8928 2.39757C16.4208 2.39757 14.3448 3.16797 12.5496 4.75196C10.8 6.29757 9.948 8.14797 9.948 10.4064C9.948 11.5152 10.1856 12.5592 10.6488 13.5072C11.1264 14.484 11.772 15.3504 12.5664 16.0776C13.3656 16.812 14.3184 17.4096 15.3984 17.856C16.4664 18.3 17.6424 18.5232 18.8928 18.5232C21.4248 18.5232 23.4864 17.7288 25.1976 16.092C26.892 14.472 27.7152 12.6096 27.7152 10.404C27.7152 8.20796 26.8776 6.37196 25.1544 4.78556C23.4024 3.18237 21.3528 2.39757 18.8928 2.39757L18.8928 2.39757Z" transform="translate(100.519165 77.52002)" id="Shape" fill="#1F212B" fill-rule="evenodd" stroke="none" />
      </g>
    </g>
  </g>
</svg>