<?xml version="1.0" encoding="utf-8"?>
<svg width="289px" height="293px" viewBox="0 0 289 293" version="1.1" xmlns:xlink="http://www.w3.org/1999/xlink" xmlns="http://www.w3.org/2000/svg">
  <defs>
    <path d="M0 0L240 0L240 240L0 240L0 0Z" id="path_1" />
    <rect width="289" height="293" id="artboard_1" />
    <clipPath id="clip_1">
      <use xlink:href="#artboard_1" clip-rule="evenodd" />
    </clipPath>
    <clipPath id="mask_1">
      <use xlink:href="#path_1" />
    </clipPath>
  </defs>
  <g id="Artboard" clip-path="url(#clip_1)">
    <use xlink:href="#artboard_1" stroke="none" fill="#FFFFFF" fill-opacity="0" />
    <g id="Cancel-icon" transform="translate(24 26.00003)">
      <path d="M0 0L240 0L240 240L0 240L0 0Z" id="Background" fill="none" fill-rule="evenodd" stroke="none" />
      <g clip-path="url(#mask_1)">
        <path d="M84 0C37.6082 0 0.000119019 37.608 0 83.9998C-0.000119019 130.392 37.6077 168 83.9996 168C130.391 168 168 130.392 168 84.0005C168 37.6086 130.392 0.000357056 84.0004 0L84 0Z" transform="translate(36 35.99997)" id="Shape" fill="#78A1D1" fill-rule="evenodd" stroke="none" />
        <path d="M37.4916 32.4L63.7452 6.1464C65.1516 4.7424 65.1516 2.46 63.7452 1.05601C63.0444 0.3504 62.1228 0 61.2012 0C60.2796 0 59.358 0.3504 58.6548 1.0536L32.4012 27.3096L6.1476 1.0536C5.4444 0.3504 4.5228 0 3.6012 0C2.6796 0 1.758 0.3504 1.0548 1.0536C-0.351599 2.4576 -0.351599 4.74 1.0548 6.144L27.3108 32.4L1.0548 58.6536C-0.351599 60.0576 -0.351599 62.34 1.0548 63.744C1.758 64.4496 2.6796 64.8 3.6012 64.8C4.5228 64.8 5.4444 64.4496 6.1476 63.7464L32.4012 37.4904L58.6548 63.744C59.358 64.4496 60.2796 64.8 61.2012 64.8C62.1228 64.8 63.0444 64.4496 63.7476 63.7464C65.154 62.3424 65.154 60.06 63.7476 58.656L37.4916 32.4L37.4916 32.4Z" transform="translate(87.59885 87.60004)" id="Shape" fill="#FDFCEF" fill-rule="evenodd" stroke="none" />
        <g id="Group" transform="translate(33.600006 33.600006)">
          <path d="M86.4 172.8C38.7576 172.8 0 134.042 0 86.4C0 38.7576 38.7576 0 86.4 0C134.042 0 172.8 38.7576 172.8 86.4C172.8 134.042 134.042 172.8 86.4 172.8L86.4 172.8ZM86.4 4.79999C41.4048 4.79999 4.79999 41.4048 4.79999 86.4C4.79999 131.395 41.4048 168 86.4 168C131.395 168 168 131.395 168 86.4C168 41.4048 131.395 4.79999 86.4 4.79999L86.4 4.79999Z" id="Shape" fill="#1F212B" fill-rule="evenodd" stroke="none" />
          <path d="M6.00133 4.99928C5.79253 4.99928 5.58132 4.94649 5.38933 4.83128C3.85813 3.92648 2.27173 3.06728 0.668536 2.27528C0.0757324 1.98008 -0.169061 1.26248 0.123733 0.667282C0.418936 0.0696808 1.14373 -0.165518 1.73173 0.122484C3.38534 0.940883 5.02933 1.82889 6.61092 2.76728C7.17972 3.10568 7.36933 3.84008 7.03333 4.41128C6.81012 4.78809 6.41172 4.99928 6.00133 4.99928L6.00133 4.99928ZM13.2014 9.85446C12.9469 9.85446 12.6902 9.77286 12.4718 9.60726C11.699 9.01446 10.9117 8.44086 10.1125 7.87926C9.57015 7.49766 9.43815 6.75126 9.81975 6.20886C10.1989 5.66166 10.9477 5.53686 11.4901 5.91366C12.3181 6.49206 13.1293 7.08966 13.9309 7.70166C14.4589 8.10246 14.5573 8.85607 14.1565 9.38407C13.919 9.69126 13.5614 9.85446 13.2014 9.85446L13.2014 9.85446Z" transform="translate(117.598724 19.545471)" id="Shape" fill="#1F212B" fill-rule="evenodd" stroke="none" />
          <path d="M74.4 148.8C33.3744 148.8 0 115.423 0 74.4C0 33.3768 33.3744 0 74.4 0C83.2032 0 91.8216 1.524 100.013 4.5264C100.637 4.7544 100.956 5.4432 100.728 6.0672C100.5 6.6912 99.8088 7.0104 99.1872 6.78C91.26 3.8736 82.9224 2.4 74.4 2.4C34.6992 2.4 2.4 34.6992 2.4 74.4C2.4 114.101 34.6992 146.4 74.4 146.4C114.101 146.4 146.4 114.101 146.4 74.4C146.4 54.1464 137.796 34.716 122.794 21.0888C122.302 20.6424 122.266 19.884 122.712 19.392C123.161 18.9024 123.919 18.8664 124.406 19.3104C139.91 33.3936 148.8 53.472 148.8 74.4C148.8 115.423 115.426 148.8 74.4 148.8L74.4 148.8Z" transform="translate(12.000015 12.000015)" id="Shape" fill="#1F212B" fill-rule="evenodd" stroke="none" />
          <path d="M40.3872 33.6L65.7936 8.19361C66.7008 7.2888 67.2 6.0816 67.2 4.8C67.2 3.5184 66.7008 2.3112 65.7936 1.4064C64.8864 0.499201 63.6816 0 62.4 0C61.1184 0 59.9136 0.499201 59.0064 1.4064L33.6 26.8128L8.19361 1.4064C7.2864 0.499201 6.0816 0 4.8 0C3.5184 0 2.3136 0.499201 1.4064 1.4064C0.499201 2.3112 0 3.5184 0 4.8C0 6.0816 0.499201 7.2888 1.4064 8.19361L26.8128 33.6L1.4064 59.0064C0.499201 59.9112 0 61.1184 0 62.4C0 63.6816 0.499201 64.8888 1.4064 65.7936C2.3136 66.7008 3.5184 67.2 4.8 67.2C6.0816 67.2 7.2864 66.7008 8.19361 65.7936L33.6 40.3872L59.0064 65.7936C59.9136 66.7008 61.1184 67.2 62.4 67.2C63.6816 67.2 64.8864 66.7008 65.7936 65.7936C66.7008 64.8888 67.2 63.6816 67.2 62.4C67.2 61.1184 66.7008 59.9112 65.7936 59.0064L40.3872 33.6L40.3872 33.6ZM64.0968 64.0968C63.1896 65.004 61.6104 65.004 60.7032 64.0968L33.6 36.9936L6.49683 64.0968C5.58963 65.004 4.01043 65.004 3.10322 64.0968C2.64962 63.6432 2.40002 63.0408 2.40002 62.4C2.40002 61.7592 2.64962 61.1568 3.10322 60.7032L30.2064 33.6L3.10322 6.49681C2.64962 6.04321 2.40002 5.44081 2.40002 4.80001C2.40002 4.15921 2.64962 3.55681 3.10322 3.10321C4.01042 2.19601 5.58962 2.19601 6.49683 3.10321L33.6 30.2064L60.7032 3.10321C61.6104 2.19601 63.1896 2.19601 64.0968 3.10321C64.5504 3.55681 64.8 4.15921 64.8 4.80001C64.8 5.44081 64.5504 6.04321 64.0968 6.49681L36.9936 33.6L64.0968 60.7032C64.5504 61.1568 64.8 61.7592 64.8 62.4C64.8 63.0408 64.5504 63.6432 64.0968 64.0968L64.0968 64.0968Z" transform="translate(52.799988 52.799988)" id="Shape" fill="#1F212B" fill-rule="evenodd" stroke="none" />
        </g>
      </g>
    </g>
  </g>
</svg>